{
  "asset": {
    "version": "2.0",
    "generator": "THREE.GLTFExporter r174"
  },
  "scenes": [
    {
      "name": "Scene",
      "nodes": [
        8,
        9
      ]
    }
  ],
  "scene": 0,
  "nodes": [
    {
      "matrix": [
        0.800000011920929,
        0,
        0,
        0,
        0,
        -0.06596702793084247,
        -0.5963626492966976,
        0,
        0,
        0.9939377093322932,
        -0.10994504218258067,
        0,
        0,
        4.746772289276123,
        0.36161816120147705,
        1
      ],
      "name": "Cockpit",
      "extras": {
        "name": "Cockpit"
      },
      "mesh": 0
    },
    {
      "matrix": [
        0.7071067766522636,
        -0.7071055877834065,
        0.0013089316152585207,
        0,
        -1.1511623346362675e-7,
        -0.0018512318868531131,
        -0.9999983192444646,
        0,
        0.7071068116948384,
        0.7071055852004419,
        -0.0013091023246954959,
        0,
        -1.5,
        5,
        0,
        1
      ],
      "name": "LeftWing",
      "extras": {
        "name": "LeftWing"
      },
      "mesh": 1
    },
    {
      "matrix": [
        1,
        0,
        0,
        0,
        0,
        -1.3435883849943764e-7,
        -0.9999999999999911,
        0,
        0,
        0.9999999999999911,
        -1.3435883849943764e-7,
        0,
        0,
        5,
        0,
        1
      ],
      "name": "MainBody",
      "extras": {
        "name": "MainBody"
      },
      "mesh": 2
    },
    {
      "matrix": [
        0.7071067966576875,
        0.7030118017505319,
        0.0759893954029415,
        0,
        2.109986239106026e-8,
        0.10746521393476997,
        -0.9942088505140222,
        0,
        -0.7071067703007977,
        0.7030118365847978,
        0.07598936792972348,
        0,
        1.5,
        5,
        0,
        1
      ],
      "name": "RightWing",
      "extras": {
        "name": "RightWing"
      },
      "mesh": 3
    },
    {
      "matrix": [
        0.699999988079071,
        0,
        0,
        0,
        0,
        -9.40511978291035e-8,
        0.700000082130269,
        0,
        0,
        -0.700000082130269,
        -9.40511978291035e-8,
        0,
        0,
        5,
        0.9223392605781555,
        1
      ],
      "name": "TurbineBody",
      "extras": {
        "name": "TurbineBody"
      },
      "mesh": 4
    },
    {
      "matrix": [
        0.699999988079071,
        0,
        0,
        0,
        0,
        -9.40511978291035e-8,
        0.700000082130269,
        0,
        0,
        -0.700000082130269,
        -9.40511978291035e-8,
        0,
        0,
        5,
        1.2274773120880127,
        1
      ],
      "name": "TurbineExhaust",
      "extras": {
        "name": "TurbineExhaust"
      },
      "mesh": 5
    },
    {
      "matrix": [
        0.699999988079071,
        0,
        0,
        0,
        0,
        -9.40511978291035e-8,
        -0.700000082130269,
        0,
        0,
        0.700000082130269,
        -9.40511978291035e-8,
        0,
        0,
        5,
        0.699999988079071,
        1
      ],
      "name": "TurbineIntake",
      "extras": {
        "name": "TurbineIntake"
      },
      "mesh": 6
    },
    {
      "matrix": [
        1,
        0,
        0,
        0,
        0,
        1,
        0,
        0,
        0,
        0,
        1,
        0,
        0,
        -5,
        0,
        1
      ],
      "name": "Spaceship",
      "extras": {
        "name": "Spaceship"
      },
      "children": [
        0,
        1,
        2,
        3,
        4,
        5,
        6
      ]
    },
    {
      "matrix": [
        -1,
        4.614478139254232e-17,
        1.2246467991473532e-16,
        0,
        -4.614478139254231e-17,
        -1,
        1.2246467991473532e-16,
        0,
        1.2246467991473532e-16,
        1.2246467991473532e-16,
        1,
        0,
        0,
        0,
        0,
        1
      ],
      "name": "QuantumSpearOne.glb",
      "children": [
        7
      ]
    },
    {
      "matrix": [
        1,
        0,
        0,
        0,
        0,
        1,
        0,
        0,
        0,
        0,
        1,
        0,
        0,
        0,
        1.611575221099376,
        1
      ],
      "name": "PointLight",
      "extensions": {
        "KHR_lights_punctual": {
          "light": 0
        }
      }
    }
  ],
  "bufferViews": [
    {
      "buffer": 0,
      "byteOffset": 0,
      "byteLength": 192,
      "target": 34962,
      "byteStride": 12
    },
    {
      "buffer": 0,
      "byteOffset": 192,
      "byteLength": 192,
      "target": 34962,
      "byteStride": 12
    },
    {
      "buffer": 0,
      "byteOffset": 384,
      "byteLength": 128,
      "target": 34962,
      "byteStride": 8
    },
    {
      "buffer": 0,
      "byteOffset": 512,
      "byteLength": 36,
      "target": 34963
    },
    {
      "buffer": 0,
      "byteOffset": 548,
      "byteLength": 288,
      "target": 34962,
      "byteStride": 12
    },
    {
      "buffer": 0,
      "byteOffset": 836,
      "byteLength": 288,
      "target": 34962,
      "byteStride": 12
    },
    {
      "buffer": 0,
      "byteOffset": 1124,
      "byteLength": 72,
      "target": 34963
    },
    {
      "buffer": 0,
      "byteOffset": 1196,
      "byteLength": 144,
      "target": 34962,
      "byteStride": 12
    },
    {
      "buffer": 0,
      "byteOffset": 1340,
      "byteLength": 144,
      "target": 34962,
      "byteStride": 12
    },
    {
      "buffer": 0,
      "byteOffset": 1484,
      "byteLength": 96,
      "target": 34962,
      "byteStride": 8
    },
    {
      "buffer": 0,
      "byteOffset": 1580,
      "byteLength": 24,
      "target": 34963
    },
    {
      "buffer": 0,
      "byteOffset": 1604,
      "byteLength": 288,
      "target": 34962,
      "byteStride": 12
    },
    {
      "buffer": 0,
      "byteOffset": 1892,
      "byteLength": 288,
      "target": 34962,
      "byteStride": 12
    },
    {
      "buffer": 0,
      "byteOffset": 2180,
      "byteLength": 72,
      "target": 34963
    },
    {
      "buffer": 0,
      "byteOffset": 2252,
      "byteLength": 2304,
      "target": 34962,
      "byteStride": 12
    },
    {
      "buffer": 0,
      "byteOffset": 4556,
      "byteLength": 2304,
      "target": 34962,
      "byteStride": 12
    },
    {
      "buffer": 0,
      "byteOffset": 6860,
      "byteLength": 1536,
      "target": 34962,
      "byteStride": 8
    },
    {
      "buffer": 0,
      "byteOffset": 8396,
      "byteLength": 744,
      "target": 34963
    },
    {
      "buffer": 0,
      "byteOffset": 9140,
      "byteLength": 1152,
      "target": 34962,
      "byteStride": 12
    },
    {
      "buffer": 0,
      "byteOffset": 10292,
      "byteLength": 1152,
      "target": 34962,
      "byteStride": 12
    },
    {
      "buffer": 0,
      "byteOffset": 11444,
      "byteLength": 768,
      "target": 34962,
      "byteStride": 8
    },
    {
      "buffer": 0,
      "byteOffset": 12212,
      "byteLength": 360,
      "target": 34963
    },
    {
      "buffer": 0,
      "byteOffset": 12572,
      "byteLength": 1152,
      "target": 34962,
      "byteStride": 12
    },
    {
      "buffer": 0,
      "byteOffset": 13724,
      "byteLength": 1152,
      "target": 34962,
      "byteStride": 12
    },
    {
      "buffer": 0,
      "byteOffset": 14876,
      "byteLength": 768,
      "target": 34962,
      "byteStride": 8
    },
    {
      "buffer": 0,
      "byteOffset": 15644,
      "byteLength": 360,
      "target": 34963
    }
  ],
  "buffers": [
    {
      "byteLength": 16004,
      "uri": "data:application/octet-stream;base64,"
    }
  ],
  "accessors": [
    {
      "bufferView": 0,
      "componentType": 5126,
      "count": 16,
      "max": [
        0.20000000298023224,
        0.20000000298023224,
        0.20000000298023224
      ],
      "min": [
        -0.20000000298023224,
        -0.20000000298023224,
        -0.20000000298023224
      ],
      "type": "VEC3"
    },
    {
      "bufferView": 1,
      "componentType": 5126,
      "count": 16,
      "max": [
        0.6666778326034546,
        0.33328890800476074,
        0.6666778326034546
      ],
      "min": [
        -0.6666778326034546,
        -1,
        -0.6666778326034546
      ],
      "type": "VEC3"
    },
    {
      "bufferView": 2,
      "componentType": 5126,
      "count": 16,
      "max": [
        0.9900000095367432,
        0.9900000095367432
      ],
      "min": [
        0.01000000536441803,
        0.5099999904632568
      ],
      "type": "VEC2"
    },
    {
      "bufferView": 3,
      "componentType": 5123,
      "count": 18,
      "max": [
        15
      ],
      "min": [
        0
      ],
      "type": "SCALAR"
    },
    {
      "bufferView": 4,
      "componentType": 5126,
      "count": 24,
      "max": [
        1,
        0.30000001192092896,
        0.05000000074505806
      ],
      "min": [
        -1,
        -0.4000000059604645,
        -0.05000000074505806
      ],
      "type": "VEC3"
    },
    {
      "bufferView": 5,
      "componentType": 5126,
      "count": 24,
      "max": [
        1,
        0.9987543821334839,
        0
      ],
      "min": [
        -1,
        0,
        -1
      ],
      "type": "VEC3"
    },
    {
      "bufferView": 6,
      "componentType": 5123,
      "count": 36,
      "max": [
        23
      ],
      "min": [
        0
      ],
      "type": "SCALAR"
    },
    {
      "bufferView": 7,
      "componentType": 5126,
      "count": 12,
      "max": [
        0.4330126941204071,
        1,
        0.25
      ],
      "min": [
        -0.4330126941204071,
        -1,
        -0.5
      ],
      "type": "VEC3"
    },
    {
      "bufferView": 8,
      "componentType": 5126,
      "count": 12,
      "max": [
        0.8593482971191406,
        0.1240069642663002,
        0.9922824501991272
      ],
      "min": [
        -0.8593482971191406,
        -1,
        -0.4961278736591339
      ],
      "type": "VEC3"
    },
    {
      "bufferView": 9,
      "componentType": 5126,
      "count": 12,
      "max": [
        0.9578461050987244,
        0.8700000047683716
      ],
      "min": [
        0.04215390980243683,
        0.5099999904632568
      ],
      "type": "VEC2"
    },
    {
      "bufferView": 10,
      "componentType": 5123,
      "count": 12,
      "max": [
        11
      ],
      "min": [
        0
      ],
      "type": "SCALAR"
    },
    {
      "bufferView": 11,
      "componentType": 5126,
      "count": 24,
      "max": [
        1,
        0.30000001192092896,
        0.05000000074505806
      ],
      "min": [
        -1,
        -0.4000000059604645,
        -0.05000000074505806
      ],
      "type": "VEC3"
    },
    {
      "bufferView": 12,
      "componentType": 5126,
      "count": 24,
      "max": [
        1,
        0,
        1
      ],
      "min": [
        -1,
        -0.9987543821334839,
        0
      ],
      "type": "VEC3"
    },
    {
      "bufferView": 13,
      "componentType": 5123,
      "count": 36,
      "max": [
        23
      ],
      "min": [
        0
      ],
      "type": "SCALAR"
    },
    {
      "bufferView": 14,
      "componentType": 5126,
      "count": 192,
      "max": [
        0.30000001192092896,
        0.3499999940395355,
        0.30000001192092896
      ],
      "min": [
        -0.30000001192092896,
        -0.3499999940395355,
        -0.30000001192092896
      ],
      "type": "VEC3"
    },
    {
      "bufferView": 15,
      "componentType": 5126,
      "count": 192,
      "max": [
        0.9951865673065186,
        1,
        0.9951865673065186
      ],
      "min": [
        -0.9951865673065186,
        -1,
        -0.9951865673065186
      ],
      "type": "VEC3"
    },
    {
      "bufferView": 16,
      "componentType": 5126,
      "count": 192,
      "max": [
        1,
        0.9900000095367432
      ],
      "min": [
        0,
        0
      ],
      "type": "VEC2"
    },
    {
      "bufferView": 17,
      "componentType": 5123,
      "count": 372,
      "max": [
        191
      ],
      "min": [
        0
      ],
      "type": "SCALAR"
    },
    {
      "bufferView": 18,
      "componentType": 5126,
      "count": 96,
      "max": [
        0.2800000011920929,
        0.15000000596046448,
        0.2800000011920929
      ],
      "min": [
        -0.2800000011920929,
        -0.15000000596046448,
        -0.2800000011920929
      ],
      "type": "VEC3"
    },
    {
      "bufferView": 19,
      "componentType": 5126,
      "count": 96,
      "max": [
        0.9488867521286011,
        1,
        0.9488867521286011
      ],
      "min": [
        -0.9488867521286011,
        -1,
        -0.9488867521286011
      ],
      "type": "VEC3"
    },
    {
      "bufferView": 20,
      "componentType": 5126,
      "count": 96,
      "max": [
        1,
        0.9900000095367432
      ],
      "min": [
        0,
        0
      ],
      "type": "VEC2"
    },
    {
      "bufferView": 21,
      "componentType": 5123,
      "count": 180,
      "max": [
        95
      ],
      "min": [
        0
      ],
      "type": "SCALAR"
    },
    {
      "bufferView": 22,
      "componentType": 5126,
      "count": 96,
      "max": [
        0.30000001192092896,
        0.10000000149011612,
        0.30000001192092896
      ],
      "min": [
        -0.30000001192092896,
        -0.10000000149011612,
        -0.30000001192092896
      ],
      "type": "VEC3"
    },
    {
      "bufferView": 23,
      "componentType": 5126,
      "count": 96,
      "max": [
        0.9525768160820007,
        1,
        0.9525768160820007
      ],
      "min": [
        -0.9525768160820007,
        -1,
        -0.9525768160820007
      ],
      "type": "VEC3"
    },
    {
      "bufferView": 24,
      "componentType": 5126,
      "count": 96,
      "max": [
        1,
        0.9900000095367432
      ],
      "min": [
        0,
        0
      ],
      "type": "VEC2"
    },
    {
      "bufferView": 25,
      "componentType": 5123,
      "count": 180,
      "max": [
        95
      ],
      "min": [
        0
      ],
      "type": "SCALAR"
    }
  ],
  "materials": [
    {
      "pbrMetallicRoughness": {
        "baseColorFactor": [
          0,
          0,
          1,
          1
        ],
        "metallicFactor": 0,
        "roughnessFactor": 0.5
      },
      "doubleSided": true,
      "name": "CockpitMaterial"
    },
    {
      "pbrMetallicRoughness": {
        "baseColorFactor": [
          0,
          1,
          0,
          1
        ],
        "metallicFactor": 0.875,
        "roughnessFactor": 0.20454546809196472
      },
      "doubleSided": true,
      "name": "WingMaterial"
    },
    {
      "pbrMetallicRoughness": {
        "baseColorFactor": [
          0.6724431569510133,
          0.6724431569510133,
          0.6724431569510133,
          1
        ],
        "metallicFactor": 0.8613636493682861,
        "roughnessFactor": 0.16590909659862518
      },
      "doubleSided": true,
      "name": "MainBodyMaterial"
    },
    {
      "pbrMetallicRoughness": {
        "baseColorFactor": [
          0.3005437944049895,
          0.3005437944049895,
          0.3005437944049895,
          1
        ],
        "metallicFactor": 0.8545454740524292,
        "roughnessFactor": 0.08636364340782166
      },
      "doubleSided": true,
      "name": "TurbineMaterial"
    },
    {
      "pbrMetallicRoughness": {
        "baseColorFactor": [
          0.5972017883558645,
          0.20155625378383743,
          0.09989872823822872,
          1
        ],
        "metallicFactor": 0,
        "roughnessFactor": 0.5
      },
      "doubleSided": true,
      "name": "TurbineExhaustMaterial"
    },
    {
      "pbrMetallicRoughness": {
        "baseColorFactor": [
          0.4019777798219466,
          0.4019777798219466,
          0.4019777798219466,
          1
        ],
        "metallicFactor": 0,
        "roughnessFactor": 0.5
      },
      "doubleSided": true,
      "name": "TurbineIntakeMaterial"
    }
  ],
  "meshes": [
    {
      "primitives": [
        {
          "mode": 4,
          "attributes": {
            "POSITION": 0,
            "NORMAL": 1,
            "TEXCOORD_0": 2
          },
          "indices": 3,
          "material": 0
        }
      ]
    },
    {
      "primitives": [
        {
          "mode": 4,
          "attributes": {
            "POSITION": 4,
            "NORMAL": 5
          },
          "indices": 6,
          "material": 1
        }
      ]
    },
    {
      "primitives": [
        {
          "mode": 4,
          "attributes": {
            "POSITION": 7,
            "NORMAL": 8,
            "TEXCOORD_0": 9
          },
          "indices": 10,
          "material": 2
        }
      ]
    },
    {
      "primitives": [
        {
          "mode": 4,
          "attributes": {
            "POSITION": 11,
            "NORMAL": 12
          },
          "indices": 13,
          "material": 1
        }
      ]
    },
    {
      "primitives": [
        {
          "mode": 4,
          "attributes": {
            "POSITION": 14,
            "NORMAL": 15,
            "TEXCOORD_0": 16
          },
          "indices": 17,
          "material": 3
        }
      ]
    },
    {
      "primitives": [
        {
          "mode": 4,
          "attributes": {
            "POSITION": 18,
            "NORMAL": 19,
            "TEXCOORD_0": 20
          },
          "indices": 21,
          "material": 4
        }
      ]
    },
    {
      "primitives": [
        {
          "mode": 4,
          "attributes": {
            "POSITION": 22,
            "NORMAL": 23,
            "TEXCOORD_0": 24
          },
          "indices": 25,
          "material": 5
        }
      ]
    }
  ],
  "extensions": {
    "KHR_lights_punctual": {
      "lights": [
        {
          "name": "PointLight",
          "color": [
            1,
            1,
            1
          ],
          "intensity": 1,
          "type": "point"
        }
      ]
    }
  },
  "extensionsUsed": [
    "KHR_lights_punctual"
  ]
}